# xmcd
# 
# Track frame offsets:
#     150
#     39182
#     97050
#     165232
#     241747
#     269267
#     299735
# 
# Disc length: 4441
# 
# Revision: 0
# Processed by: cddbd v1.5.2PL0 Copyright (c) Steve Scherf et al.
# Submitted via: fre:ac v1.0.17
# 
DISCID=58115707
DTITLE=Various Artist - CDCM Computer Music Series Volume 7
DYEAR=1990
DGENRE=Electronic
TTITLE0=Neil B. Rolnick - Vocal Chords
TTITLE1=Neil B. Rolnick - A Robert Johnson Sampler
TTITLE2=Pauline Oliveros - Lion's Tale
TTITLE3=Julie Kabat - Child and the Moon-Tree
TTITLE4=Barton McLean - from Visions of a Summer Night - A Little Night Music
TTITLE5=Barton McLean - from Visions of a Summer Night - Demons of the Night
TTITLE6=Joel Chadabe - Modalities
EXTD=
EXTT0=
EXTT1=
EXTT2=
EXTT3=
EXTT4=
EXTT5=
EXTT6=
PLAYORDER=
